# xmcd
#
# Track frame offsets: 
#        150
#        18340
#        37657
#        54537
#        74219
#        91499
#        111221
#        132813
#        159996
#
# Disc length: 2454 seconds
#
# Revision: 0
# Processed by: cddbd v1.5.2PL0 Copyright (c) Steve Scherf et al.
# Submitted via: ExactAudioCopy v0.99pb3
#
DISCID=71099409
DTITLE=Artie 'Blues Boy' White - Where It's At
DYEAR=1988
DGENRE=Blues
TTITLE0=Too Weak To Fight
TTITLE1=I Dig My Gig
TTITLE2=One Woman's Man
TTITLE3=That's Where It's At
TTITLE4=Love Ain't Been Used
TTITLE5=Nobody Wants You When You're Old And Gray
TTITLE6=God Bless Our Love
TTITLE7=Proud To Be Your Man
TTITLE8=Day Or Two
EXTD=
EXTT0=
EXTT1=
EXTT2=
EXTT3=
EXTT4=
EXTT5=
EXTT6=
EXTT7=
EXTT8=
PLAYORDER=
